<?xml version="1.0" encoding="utf-8"?>
<!-- Generator: Adobe Illustrator 19.0.0, SVG Export Plug-In . SVG Version: 6.00 Build 0)  -->
<svg version="1.1" xmlns="http://www.w3.org/2000/svg" xmlns:xlink="http://www.w3.org/1999/xlink" x="0px" y="0px"
	 viewBox="-286 382.3 38.5 29.7" style="enable-background:new -286 382.3 38.5 29.7;" xml:space="preserve">
<style type="text/css">
	.st0{display:none;}
	.st1{display:inline;fill:#010101;}
	.st2{display:inline;}
	.st3{stroke:#000000;stroke-width:0.25;stroke-miterlimit:10;}
</style>
<g id="Dropdown" class="st0">
	<path class="st1" d="M-251.5,388.7h-13.3H-282c-1.1,0-2,0.9-2,2v13.1c0,1.1,0.9,2,2,2h17.3h13.3c1.1,0,2-0.9,2-2v-13.1
		C-249.5,389.6-250.3,388.7-251.5,388.7z M-258,401.8l-5.9-5.9l2.4-2.4l3.5,3.5l3.5-3.5l2.4,2.4L-258,401.8z M-283,403.8v-13.1
		c0-0.6,0.4-1,1-1h15.6c-0.2,0.3-0.3,0.6-0.3,1v13.1c0,0.4,0.1,0.7,0.3,1H-282C-282.7,404.8-283,404.4-283,403.8z"/>
</g>
<g id="Checkbox" class="st0">
	<g class="st2">
		<rect x="-271.2" y="389.5" width="19" height="3.1"/>
		<path d="M-271.2,399.2h19v-3.1h-19C-271.2,396.1-271.2,399.1-271.2,399.2z"/>
		<rect x="-271.2" y="402.3" width="19" height="3.1"/>
		<path d="M-280,406.7h5.5v-5.5h-5.5V406.7z M-278.9,402.2h3.4v3.4h-3.4V402.2z"/>
		<path d="M-280,400.4h5.5c0-0.1,0-5.5,0-5.5h-5.5V400.4z M-278.9,395.9h3.4v3.4h-3.4V395.9z"/>
		<polygon points="-278,390.6 -279.5,389 -281.3,390.8 -279.8,392.4 -278,394.2 -276.2,392.4 -272.2,388.5 -274.2,386.7 		"/>
	</g>
</g>
<g id="Radios" class="st0">
	<g class="st2">
		<path d="M-277.2,393.8c1.4,0,2.7-1.3,2.7-2.7c0-1.4-1.1-2.7-2.7-2.7s-2.7,1.3-2.7,2.7C-279.9,392.6-278.6,393.8-277.2,393.8z
			 M-277.2,389.3c1,0,1.8,0.8,1.8,1.8c0,1-0.8,1.8-1.8,1.8c-1,0-1.8-0.8-1.8-1.8C-279,390.2-278.2,389.3-277.2,389.3z"/>
		<circle cx="-277.2" cy="397.6" r="2.7"/>
		<circle cx="-277.2" cy="403.9" r="2.7"/>
		<rect x="-271.2" y="389.6" width="19" height="3.1"/>
		<path d="M-271.2,399.2h19v-3.1h-19C-271.2,396.1-271.2,399.1-271.2,399.2z"/>
		<rect x="-271.2" y="402.3" width="19" height="3.1"/>
	</g>
</g>
<g id="Explanation" class="st0">
	<g class="st2">
		<path d="M-268.5,406.7c0,0.1-0.1,0.3-0.1,0.4c0,1.1,0.9,2,2,2c1.1,0,2-0.9,2-2c0-0.1,0-0.3-0.1-0.4H-268.5z"/>
		<path d="M-262.4,399.5c0.4-0.6,0.6-1.4,0.7-2.1c0.1-0.4,0.1-0.6,0.1-0.6c0-2.9-2.4-5.3-5.3-5.3s-5.3,2.4-5.3,5.3
			c0,0,0,0.2,0.1,0.6c0.1,0.7,0.3,1.5,0.7,2.1c0,0.1,0.1,0.1,0.1,0.2c0.1,0.1,0.1,0.1,0.2,0.2c0.1,0.2,0.3,0.4,0.5,0.6
			c0.1,0.1,0.1,0.1,0.2,0.2c0.1,0.1,0.2,0.2,0.3,0.2c1.4,0.9,1.6,3.9,1.7,4.5h3.5c0-0.7,0.2-3.5,1.6-4.5c0.1-0.1,0.1-0.2,0.2-0.2
			c0.1-0.1,0-0.2,0.1-0.3c0.2-0.2,0.2-0.5,0.5-0.7C-262.5,399.7-262.5,399.5-262.4,399.5C-262.4,399.5-262.4,399.5-262.4,399.5z"/>
		<path d="M-266.9,389.9c0.4,0,0.8-0.4,0.8-0.8v-2.8c0-0.4-0.4-0.8-0.8-0.8c-0.4,0-0.8,0.4-0.8,0.8v2.8
			C-267.8,389.5-267.4,389.9-266.9,389.9z"/>
		<path d="M-261.1,392.2l2.1-2.1c0.3-0.3,0.3-0.8,0-1.1c-0.3-0.3-0.8-0.3-1.1,0l-2.1,2.1c-0.3,0.3-0.3,0.8,0,1.1
			C-262.1,392.7-261.5,392.7-261.1,392.2z"/>
		<path d="M-272.5,392.2c0.3,0.3,0.8,0.3,1.1,0s0.3-0.8,0-1.1l-2.1-2.1c-0.3-0.3-0.8-0.3-1.1,0c-0.3,0.3-0.3,0.8,0,1.1L-272.5,392.2
			z"/>
		<path d="M-261.1,400.9c-0.3-0.3-0.8-0.3-1.1,0c-0.3,0.3-0.3,0.8,0,1.1l2.1,2.1c0.3,0.3,0.8,0.3,1.1,0c0.3-0.3,0.3-0.8,0-1.1
			L-261.1,400.9z"/>
		<path d="M-272.5,400.9l-2.1,2.1c-0.3,0.3-0.3,0.8,0,1.1c0.3,0.3,0.8,0.3,1.1,0l2.1-2.1c0.3-0.3,0.3-0.8,0-1.1
			C-271.6,400.6-272.2,400.6-272.5,400.9z"/>
		<path d="M-256.5,395.8h-2.8c-0.4,0-0.8,0.4-0.8,0.8c0,0.4,0.4,0.8,0.8,0.8h2.8c0.4,0,0.8-0.4,0.8-0.8
			C-255.7,396.1-256,395.8-256.5,395.8z"/>
		<path d="M-273.4,396.6c0-0.4-0.4-0.8-0.8-0.8h-2.8c-0.4,0-0.8,0.4-0.8,0.8c0,0.4,0.4,0.8,0.8,0.8h2.8
			C-273.8,397.4-273.4,397-273.4,396.6z"/>
	</g>
</g>
<g id="Heading" class="st0">
	<g class="st2">
		<polygon class="st3" points="-285.2,398.3 -275.2,403.1 -275.2,399.9 -281.3,397.4 -275.2,394.3 -275.2,391.2 -285.2,396.4 		"/>
		<polygon class="st3" points="-264.6,395.4 -269,395.4 -269,389.8 -272.9,389.8 -272.9,404.9 -269,404.9 -269,398.7 -264.6,398.7 
			-264.6,404.9 -260.7,404.9 -260.7,389.8 -264.6,389.8 		"/>
		<polygon class="st3" points="-258.3,391.3 -258.3,394.5 -252.2,397.5 -258.3,400.1 -258.3,403.2 -248.3,398.5 -248.3,396.6 		"/>
	</g>
</g>
<g id="Numerical" class="st0">
	<path class="st2" d="M-275.6,404.7h-4.1v-7.9c0-0.9,0-1.8,0.1-2.7c-0.3,0.3-0.6,0.6-1,0.9l-1.7,1.4l-2.1-2.6l5.2-4.2h3.6V404.7z"/>
	<path class="st2" d="M-262,404.7h-10.9V402l3.6-3.7c1.1-1.1,1.7-1.8,2.1-2.2c0.3-0.4,0.6-0.7,0.7-1c0.1-0.2,0.2-0.6,0.2-0.9
		c0-0.4-0.1-0.7-0.4-0.9c-0.3-0.2-0.6-0.3-1.1-0.3c-0.5,0-1,0.2-1.4,0.4c-0.5,0.2-1.1,0.7-1.6,1.2l-2.2-2.6c0.8-0.7,1.4-1.2,1.9-1.5
		c0.6-0.3,1.2-0.5,1.7-0.7c0.6-0.2,1.3-0.2,2.1-0.2c1,0,1.8,0.2,2.6,0.5c0.8,0.3,1.3,0.8,1.8,1.4c0.4,0.7,0.7,1.3,0.7,2.1
		c0,0.6-0.1,1.1-0.2,1.6c-0.2,0.5-0.4,1-0.7,1.5c-0.3,0.5-0.8,1-1.2,1.5c-0.5,0.5-1.6,1.5-3.3,3v0.1h5.8v3.5H-262z"/>
	<path class="st2" d="M-249.4,393c0,0.9-0.3,1.7-0.9,2.4c-0.6,0.7-1.4,1.2-2.5,1.4v0.1c2.5,0.3,3.7,1.5,3.7,3.5
		c0,1.4-0.6,2.5-1.6,3.2c-1.2,0.8-2.7,1.2-4.6,1.2c-0.8,0-1.5-0.1-2.3-0.2c-0.7-0.1-1.4-0.3-2.2-0.7v-3.3c0.7,0.3,1.3,0.6,2,0.7
		c0.7,0.2,1.3,0.2,1.9,0.2c0.9,0,1.5-0.1,1.9-0.3c0.4-0.2,0.6-0.7,0.6-1.2c0-0.4-0.1-0.7-0.3-0.9c-0.2-0.2-0.6-0.4-1.1-0.5
		c-0.5-0.1-1.1-0.2-1.8-0.2h-1v-3h1c2.1,0,3.1-0.5,3.1-1.6c0-0.4-0.2-0.7-0.5-0.9c-0.3-0.2-0.7-0.2-1.2-0.2c-1,0-1.9,0.3-3,0.9
		l-1.7-2.7c0.8-0.6,1.6-0.9,2.5-1.2s1.8-0.3,2.9-0.3c1.5,0,2.8,0.3,3.6,0.9C-249.8,391.1-249.4,392-249.4,393z"/>
</g>
<g id="Text">
	<g>
		<g>
			<path d="M-275.7,404.3l-0.7-2.6h-4.3l-0.7,2.6h-3.9l4.3-14.2h4.7l4.4,14.2H-275.7z M-277.1,398.5l-0.6-2.4
				c-0.1-0.6-0.3-1.2-0.5-2c-0.2-0.8-0.3-1.4-0.4-1.8c-0.1,0.4-0.2,0.8-0.3,1.7c-0.2,0.8-0.5,2.3-1,4.4L-277.1,398.5L-277.1,398.5z"
				/>
			<path d="M-270.5,390.2h4.6c1.8,0,3.1,0.3,4,0.8c0.9,0.6,1.3,1.5,1.3,2.6c0,0.8-0.2,1.5-0.6,2c-0.4,0.6-0.9,0.9-1.5,1v0.1
				c0.9,0.3,1.4,0.6,1.8,1.1c0.4,0.6,0.6,1.2,0.6,2.1c0,1.3-0.5,2.3-1.3,3.1c-0.9,0.7-2.1,1.1-3.6,1.1h-5.1L-270.5,390.2
				L-270.5,390.2z M-266.9,395.6h1c0.5,0,0.9-0.1,1.1-0.4c0.3-0.3,0.4-0.6,0.4-0.9c0-0.8-0.6-1.2-1.7-1.2h-0.9L-266.9,395.6
				L-266.9,395.6z M-266.9,398.3v3h1.2c1.1,0,1.6-0.6,1.6-1.5c0-0.5-0.2-0.8-0.5-1c-0.3-0.3-0.8-0.4-1.3-0.4L-266.9,398.3
				L-266.9,398.3z"/>
			<path d="M-252.3,393.1c-0.9,0-1.5,0.4-2,1.1c-0.5,0.8-0.7,1.8-0.7,3.1c0,2.7,0.9,4.2,2.8,4.2c0.6,0,1.1-0.1,1.7-0.3
				c0.6-0.2,1-0.4,1.6-0.6v3.2c-1.1,0.6-2.4,0.8-3.7,0.8c-2,0-3.5-0.6-4.6-1.9c-1-1.2-1.6-3.1-1.6-5.4c0-1.5,0.3-2.7,0.8-3.9
				c0.5-1.1,1.2-1.9,2.2-2.6c0.9-0.6,2.1-0.8,3.4-0.8c1.4,0,2.8,0.4,4.1,0.9l-1,3c-0.5-0.3-0.9-0.5-1.4-0.6
				C-251.2,393.2-251.7,393.1-252.3,393.1z"/>
		</g>
	</g>
</g>
</svg>
