<?xml version="1.0" encoding="utf-8"?>
<!-- Generator: Adobe Illustrator 19.0.0, SVG Export Plug-In . SVG Version: 6.00 Build 0)  -->
<svg version="1.1" xmlns="http://www.w3.org/2000/svg" xmlns:xlink="http://www.w3.org/1999/xlink" x="0px" y="0px"
	 viewBox="-286 382.3 38.5 29.7" style="enable-background:new -286 382.3 38.5 29.7;" xml:space="preserve">
<style type="text/css">
	.st0{display:none;}
	.st1{display:inline;fill:#010101;}
	.st2{display:inline;}
</style>
<g id="Dropdown" class="st0">
	<path class="st1" d="M-251.5,388.7h-13.3H-282c-1.1,0-2,0.9-2,2v13.1c0,1.1,0.9,2,2,2h17.3h13.3c1.1,0,2-0.9,2-2v-13.1
		C-249.5,389.6-250.3,388.7-251.5,388.7z M-258,401.8l-5.9-5.9l2.4-2.4l3.5,3.5l3.5-3.5l2.4,2.4L-258,401.8z M-283,403.8v-13.1
		c0-0.6,0.4-1,1-1h15.6c-0.2,0.3-0.3,0.6-0.3,1v13.1c0,0.4,0.1,0.7,0.3,1H-282C-282.7,404.8-283,404.4-283,403.8z"/>
</g>
<g id="Checkbox" class="st0">
	<g class="st2">
		<rect x="-271.2" y="389.5" width="19" height="3.1"/>
		<path d="M-271.2,399.2h19v-3.1h-19C-271.2,396.1-271.2,399.1-271.2,399.2z"/>
		<rect x="-271.2" y="402.3" width="19" height="3.1"/>
		<path d="M-280,406.7h5.5v-5.5h-5.5V406.7z M-278.9,402.2h3.4v3.4h-3.4V402.2z"/>
		<path d="M-280,400.4h5.5c0-0.1,0-5.5,0-5.5h-5.5V400.4z M-278.9,395.9h3.4v3.4h-3.4V395.9z"/>
		<polygon points="-278,390.6 -279.5,389 -281.3,390.8 -279.8,392.4 -278,394.2 -276.2,392.4 -272.2,388.5 -274.2,386.7 		"/>
	</g>
</g>
<g id="Radios" class="st0">
	<g class="st2">
		<path d="M-277.2,393.8c1.4,0,2.7-1.3,2.7-2.7c0-1.4-1.1-2.7-2.7-2.7s-2.7,1.3-2.7,2.7C-279.9,392.6-278.6,393.8-277.2,393.8z
			 M-277.2,389.3c1,0,1.8,0.8,1.8,1.8c0,1-0.8,1.8-1.8,1.8c-1,0-1.8-0.8-1.8-1.8C-279,390.2-278.2,389.3-277.2,389.3z"/>
		<circle cx="-277.2" cy="397.6" r="2.7"/>
		<circle cx="-277.2" cy="403.9" r="2.7"/>
		<rect x="-271.2" y="389.6" width="19" height="3.1"/>
		<path d="M-271.2,399.2h19v-3.1h-19C-271.2,396.1-271.2,399.1-271.2,399.2z"/>
		<rect x="-271.2" y="402.3" width="19" height="3.1"/>
	</g>
</g>
<g id="Explanation">
	<g>
		<path d="M-268.5,406.7c0,0.1-0.1,0.3-0.1,0.4c0,1.1,0.9,2,2,2c1.1,0,2-0.9,2-2c0-0.1,0-0.3-0.1-0.4H-268.5z"/>
		<path d="M-262.4,399.5c0.4-0.6,0.6-1.4,0.7-2.1c0.1-0.4,0.1-0.6,0.1-0.6c0-2.9-2.4-5.3-5.3-5.3s-5.3,2.4-5.3,5.3
			c0,0,0,0.2,0.1,0.6c0.1,0.7,0.3,1.5,0.7,2.1c0,0.1,0.1,0.1,0.1,0.2c0.1,0.1,0.1,0.1,0.2,0.2c0.1,0.2,0.3,0.4,0.5,0.6
			c0.1,0.1,0.1,0.1,0.2,0.2c0.1,0.1,0.2,0.2,0.3,0.2c1.4,0.9,1.6,3.9,1.7,4.5h3.5c0-0.7,0.2-3.5,1.6-4.5c0.1-0.1,0.1-0.2,0.2-0.2
			c0.1-0.1,0-0.2,0.1-0.3c0.2-0.2,0.2-0.5,0.5-0.7C-262.5,399.7-262.5,399.5-262.4,399.5C-262.4,399.5-262.4,399.5-262.4,399.5z"/>
		<path d="M-266.9,389.9c0.4,0,0.8-0.4,0.8-0.8v-2.8c0-0.4-0.4-0.8-0.8-0.8c-0.4,0-0.8,0.4-0.8,0.8v2.8
			C-267.8,389.5-267.4,389.9-266.9,389.9z"/>
		<path d="M-261.1,392.2l2.1-2.1c0.3-0.3,0.3-0.8,0-1.1c-0.3-0.3-0.8-0.3-1.1,0l-2.1,2.1c-0.3,0.3-0.3,0.8,0,1.1
			C-262.1,392.7-261.5,392.7-261.1,392.2z"/>
		<path d="M-272.5,392.2c0.3,0.3,0.8,0.3,1.1,0s0.3-0.8,0-1.1l-2.1-2.1c-0.3-0.3-0.8-0.3-1.1,0c-0.3,0.3-0.3,0.8,0,1.1L-272.5,392.2
			z"/>
		<path d="M-261.1,400.9c-0.3-0.3-0.8-0.3-1.1,0c-0.3,0.3-0.3,0.8,0,1.1l2.1,2.1c0.3,0.3,0.8,0.3,1.1,0c0.3-0.3,0.3-0.8,0-1.1
			L-261.1,400.9z"/>
		<path d="M-272.5,400.9l-2.1,2.1c-0.3,0.3-0.3,0.8,0,1.1c0.3,0.3,0.8,0.3,1.1,0l2.1-2.1c0.3-0.3,0.3-0.8,0-1.1
			C-271.6,400.6-272.2,400.6-272.5,400.9z"/>
		<path d="M-256.5,395.8h-2.8c-0.4,0-0.8,0.4-0.8,0.8c0,0.4,0.4,0.8,0.8,0.8h2.8c0.4,0,0.8-0.4,0.8-0.8
			C-255.7,396.1-256,395.8-256.5,395.8z"/>
		<path d="M-273.4,396.6c0-0.4-0.4-0.8-0.8-0.8h-2.8c-0.4,0-0.8,0.4-0.8,0.8c0,0.4,0.4,0.8,0.8,0.8h2.8
			C-273.8,397.4-273.4,397-273.4,396.6z"/>
	</g>
</g>
<g id="Heading" class="st0">
	<g class="st2">
		<polygon points="-284,398.5 -274.7,404 -274.7,400.3 -280.4,397.4 -274.7,393.9 -274.7,390.2 -284,396.3 		"/>
		<polygon points="-264.7,395.1 -268.9,395.1 -268.9,388.6 -272.5,388.6 -272.5,406.1 -268.9,406.1 -268.9,398.9 -264.7,398.9 
			-264.7,406.1 -261,406.1 -261,388.6 -264.7,388.6 		"/>
		<polygon points="-258.8,390.4 -258.8,394 -253.1,397.5 -258.8,400.5 -258.8,404.2 -249.5,398.7 -249.5,396.5 		"/>
	</g>
</g>
<g id="Numerical" class="st0">
	<g class="st2">
		<g>
			<path d="M-275.4,405.2h-4v-8.3c0-1,0-1.9,0.1-2.8c-0.3,0.4-0.6,0.6-0.9,1l-1.7,1.5l-2.1-2.7l5.1-4.4h3.6V405.2z"/>
			<path d="M-261.5,405.2h-10.7v-2.8l3.6-3.9c1-1.1,1.7-1.9,2.1-2.4c0.3-0.4,0.6-0.8,0.7-1.1c0.1-0.3,0.2-0.6,0.2-1
				c0-0.4-0.1-0.7-0.4-1s-0.6-0.4-1-0.4c-0.5,0-0.9,0.2-1.4,0.4c-0.5,0.3-1,0.7-1.6,1.2l-2.2-2.7c0.8-0.7,1.4-1.2,1.9-1.6
				c0.6-0.4,1.1-0.5,1.7-0.7c0.6-0.2,1.3-0.3,2.1-0.3c0.9,0,1.8,0.2,2.5,0.5c0.8,0.4,1.3,0.9,1.8,1.5c0.4,0.7,0.7,1.4,0.7,2.2
				c0,0.6-0.1,1.1-0.2,1.7c-0.2,0.5-0.4,1.1-0.7,1.6c-0.3,0.5-0.8,1.1-1.2,1.6c-0.5,0.5-1.6,1.6-3.2,3.2v0.1h5.6v3.7H-261.5z"/>
			<path d="M-249.8,392.9c0,1-0.3,1.8-0.8,2.5s-1.4,1.2-2.4,1.5v0.1c2.4,0.4,3.7,1.6,3.7,3.7c0,1.5-0.6,2.6-1.6,3.4
				c-1.1,0.9-2.6,1.2-4.5,1.2c-0.8,0-1.5-0.1-2.3-0.2c-0.7-0.1-1.4-0.4-2.2-0.7V401c0.7,0.4,1.3,0.6,2,0.8c0.7,0.2,1.3,0.3,1.9,0.3
				c0.8,0,1.5-0.1,1.9-0.4s0.6-0.7,0.6-1.2c0-0.4-0.1-0.8-0.3-1c-0.2-0.3-0.6-0.4-1-0.5c-0.5-0.1-1-0.2-1.8-0.2h-0.9v-3.2h0.9
				c2.1,0,3-0.5,3-1.7c0-0.4-0.2-0.7-0.5-1c-0.3-0.2-0.7-0.3-1.2-0.3c-0.9,0-1.9,0.4-2.9,1l-1.7-2.8c0.8-0.6,1.6-1,2.4-1.2
				s1.8-0.4,2.8-0.4c1.5,0,2.7,0.4,3.6,1C-250.2,390.9-249.8,391.7-249.8,392.9z"/>
		</g>
	</g>
</g>
<g id="Text" class="st0">
	<g class="st2">
		<g>
			<path d="M-275.3,405.1l-0.7-2.9h-4.1l-0.7,2.9h-3.7l4.1-15.9h4.5l4.2,15.9H-275.3z M-276.6,398.7l-0.6-2.7
				c-0.1-0.6-0.3-1.3-0.5-2.3c-0.2-0.9-0.3-1.5-0.4-2c-0.1,0.4-0.2,0.9-0.3,1.9c-0.2,0.9-0.5,2.6-1,4.9h2.7V398.7z"/>
			<path d="M-270.3,389.4h4.4c1.7,0,3,0.3,3.8,0.9c0.9,0.7,1.2,1.6,1.2,2.9c0,0.9-0.2,1.6-0.6,2.3c-0.4,0.6-0.9,1-1.4,1.1v0.1
				c0.9,0.3,1.3,0.7,1.7,1.2c0.4,0.6,0.6,1.3,0.6,2.4c0,1.4-0.5,2.6-1.2,3.4c-0.9,0.8-2,1.2-3.4,1.2h-4.9L-270.3,389.4L-270.3,389.4
				z M-266.9,395.4h1c0.5,0,0.9-0.1,1-0.4c0.3-0.3,0.4-0.6,0.4-1c0-0.9-0.6-1.3-1.6-1.3h-0.9L-266.9,395.4L-266.9,395.4z
				 M-266.9,398.5v3.3h1.1c1,0,1.5-0.6,1.5-1.6c0-0.5-0.2-0.9-0.5-1.1c-0.3-0.3-0.8-0.4-1.2-0.4L-266.9,398.5L-266.9,398.5z"/>
			<path d="M-253,392.6c-0.9,0-1.4,0.4-1.9,1.2c-0.5,0.9-0.7,2-0.7,3.4c0,3,0.9,4.6,2.7,4.6c0.6,0,1-0.1,1.6-0.3
				c0.6-0.2,1-0.4,1.5-0.7v3.6c-1,0.6-2.3,0.9-3.5,0.9c-1.9,0-3.3-0.7-4.4-2.1c-1-1.3-1.5-3.4-1.5-6c0-1.6,0.3-3,0.8-4.3
				c0.5-1.2,1.1-2.2,2.1-2.9c0.9-0.7,2-0.9,3.2-0.9c1.3,0,2.7,0.4,3.9,1l-1,3.3c-0.5-0.3-0.9-0.5-1.3-0.7
				C-251.9,392.7-252.4,392.6-253,392.6z"/>
		</g>
	</g>
</g>
</svg>
