<?xml version="1.0" encoding="utf-8"?>
<!-- Generated by IcoMoon.io -->
<!DOCTYPE svg PUBLIC "-//W3C//DTD SVG 1.1//EN" "http://www.w3.org/Graphics/SVG/1.1/DTD/svg11.dtd">
<svg version="1.1" xmlns="http://www.w3.org/2000/svg" xmlns:xlink="http://www.w3.org/1999/xlink" width="41" height="32" viewBox="0 0 41 32">
<path fill="#010101" d="M26.721 18.101c0 0 1.508-0.323 1.616-0.539 0.539-0.431-2.263-3.448-2.155-4.094 0.539-3.017 0.323-5.926-1.508-7.865-1.724-1.724-4.418-2.37-7.003-2.37-5.279 0-10.451 4.418-10.451 9.805 0 2.155 0.539 4.956 2.047 6.357 0.862 0.862 1.508 4.202 2.586 3.771 0.216-0.108-0.754 3.879-0.539 3.987 1.508 0.97 7.65 0.108 9.589 0.108 1.293 0 0-1.939 0.862-2.909 0.539-0.539 0 0.431 3.663 0.108 0.539 0-0.646-2.694 0.754-3.017 0.646-0.108-1.401-1.185 0.215-1.724 0.97-0.215-0.431-1.077 0.323-1.616z"></path>
<path fill="#010101" d="M33.939 17.455c-0.108-0.323-0.431-0.431-0.754-0.323 0 0-5.926 2.909-5.71 3.232 0.108 0.323 6.249-2.155 6.249-2.155 0.215-0.215 0.323-0.539 0.215-0.754z"></path>
<path fill="#010101" d="M33.616 24.35c0 0-5.926-2.909-6.034-2.586-0.108 0.215 5.495 3.556 5.495 3.556 0.215 0.108 0.646 0 0.754-0.215 0.215-0.323 0.108-0.646-0.215-0.754z"></path>
<path fill="#010101" d="M34.155 20.687c0 0-6.572 0-6.572 0.323s6.572 0.754 6.572 0.754c0.323 0 0.539-0.215 0.539-0.539s-0.215-0.539-0.539-0.539z"></path>
<path fill="#fff" d="M24.781 14.438c0 0.893-0.724 1.616-1.616 1.616s-1.616-0.724-1.616-1.616c0-0.893 0.724-1.616 1.616-1.616s1.616 0.724 1.616 1.616z"></path>
</svg>
