<?xml version="1.0" encoding="utf-8"?>
<!-- Generator: Adobe Illustrator 19.0.0, SVG Export Plug-In . SVG Version: 6.00 Build 0)  -->
<svg version="1.1" xmlns="http://www.w3.org/2000/svg" xmlns:xlink="http://www.w3.org/1999/xlink" x="0px" y="0px"
	 viewBox="-286 382.3 38.5 29.7" style="enable-background:new -286 382.3 38.5 29.7;" xml:space="preserve">
<style type="text/css">
	.st0{display:none;}
	.st1{display:inline;fill:#010101;}
	.st2{display:inline;}
</style>
<g id="Dropdown" class="st0">
	<path class="st1" d="M-251.5,388.7h-13.3H-282c-1.1,0-2,0.9-2,2v13.1c0,1.1,0.9,2,2,2h17.3h13.3c1.1,0,2-0.9,2-2v-13.1
		C-249.5,389.6-250.3,388.7-251.5,388.7z M-258,401.8l-5.9-5.9l2.4-2.4l3.5,3.5l3.5-3.5l2.4,2.4L-258,401.8z M-283,403.8v-13.1
		c0-0.6,0.4-1,1-1h15.6c-0.2,0.3-0.3,0.6-0.3,1v13.1c0,0.4,0.1,0.7,0.3,1H-282C-282.7,404.8-283,404.4-283,403.8z"/>
</g>
<g id="Checkbox">
	<g>
		<rect x="-271.2" y="389.5" width="19" height="3.1"/>
		<path d="M-271.2,399.2h19v-3.1h-19C-271.2,396.1-271.2,399.1-271.2,399.2z"/>
		<rect x="-271.2" y="402.3" width="19" height="3.1"/>
		<path d="M-280,406.7h5.5v-5.5h-5.5V406.7z M-278.9,402.2h3.4v3.4h-3.4V402.2z"/>
		<path d="M-280,400.4h5.5c0-0.1,0-5.5,0-5.5h-5.5V400.4z M-278.9,395.9h3.4v3.4h-3.4V395.9z"/>
		<polygon points="-278,390.6 -279.5,389 -281.3,390.8 -279.8,392.4 -278,394.2 -276.2,392.4 -272.2,388.5 -274.2,386.7 		"/>
	</g>
</g>
<g id="Radios" class="st0">
	<g class="st2">
		<path d="M-277.2,393.8c1.4,0,2.7-1.3,2.7-2.7c0-1.4-1.1-2.7-2.7-2.7s-2.7,1.3-2.7,2.7C-279.9,392.6-278.6,393.8-277.2,393.8z
			 M-277.2,389.3c1,0,1.8,0.8,1.8,1.8c0,1-0.8,1.8-1.8,1.8c-1,0-1.8-0.8-1.8-1.8C-279,390.2-278.2,389.3-277.2,389.3z"/>
		<circle cx="-277.2" cy="397.6" r="2.7"/>
		<circle cx="-277.2" cy="403.9" r="2.7"/>
		<rect x="-271.2" y="389.6" width="19" height="3.1"/>
		<path d="M-271.2,399.2h19v-3.1h-19C-271.2,396.1-271.2,399.1-271.2,399.2z"/>
		<rect x="-271.2" y="402.3" width="19" height="3.1"/>
	</g>
</g>
<g id="Explanation" class="st0">
	<g class="st2">
		<path d="M-268.2,405.3c0,0.1-0.1,0.3-0.1,0.3c0,0.9,0.8,1.7,1.7,1.7c0.9,0,1.7-0.8,1.7-1.7c0-0.1,0-0.3-0.1-0.3H-268.2z"/>
		<path d="M-263,399.2c0.3-0.5,0.5-1.2,0.6-1.8c0.1-0.3,0.1-0.5,0.1-0.5c0-2.5-2-4.5-4.5-4.5s-4.5,2-4.5,4.5c0,0,0,0.2,0.1,0.5
			c0.1,0.6,0.3,1.3,0.6,1.8c0,0.1,0.1,0.1,0.1,0.2c0.1,0.1,0.1,0.1,0.2,0.2c0.1,0.2,0.3,0.3,0.4,0.5c0.1,0.1,0.1,0.1,0.2,0.2
			c0.1,0.1,0.2,0.2,0.3,0.2c1.2,0.8,1.3,3.3,1.4,3.9h3c0-0.6,0.2-3,1.3-3.9c0.1-0.1,0.1-0.2,0.2-0.2c0.1-0.1,0-0.2,0.1-0.3
			c0.2-0.2,0.2-0.4,0.4-0.6C-263.1,399.3-263.1,399.2-263,399.2C-263.1,399.2-263,399.2-263,399.2z"/>
		<path d="M-266.9,391c0.3,0,0.7-0.3,0.7-0.7v-2.4c0-0.3-0.3-0.7-0.7-0.7s-0.7,0.3-0.7,0.7v2.4C-267.6,390.7-267.3,391-266.9,391z"
			/>
		<path d="M-261.9,392.9l1.8-1.8c0.3-0.3,0.3-0.7,0-0.9c-0.3-0.3-0.7-0.3-0.9,0l-1.8,1.8c-0.3,0.3-0.3,0.7,0,0.9
			C-262.8,393.3-262.3,393.3-261.9,392.9z"/>
		<path d="M-271.6,392.9c0.3,0.3,0.7,0.3,0.9,0s0.3-0.7,0-0.9l-1.8-1.8c-0.3-0.3-0.7-0.3-0.9,0c-0.3,0.3-0.3,0.7,0,0.9L-271.6,392.9
			z"/>
		<path d="M-261.9,400.4c-0.3-0.3-0.7-0.3-0.9,0c-0.3,0.3-0.3,0.7,0,0.9l1.8,1.8c0.3,0.3,0.7,0.3,0.9,0c0.3-0.3,0.3-0.7,0-0.9
			L-261.9,400.4z"/>
		<path d="M-271.6,400.4l-1.8,1.8c-0.3,0.3-0.3,0.7,0,0.9c0.3,0.3,0.7,0.3,0.9,0l1.8-1.8c0.3-0.3,0.3-0.7,0-0.9
			C-270.9,400.1-271.4,400.1-271.6,400.4z"/>
		<path d="M-258,396h-2.4c-0.3,0-0.7,0.3-0.7,0.7s0.3,0.7,0.7,0.7h2.4c0.3,0,0.7-0.3,0.7-0.7C-257.3,396.3-257.6,396-258,396z"/>
		<path d="M-272.4,396.7c0-0.3-0.3-0.7-0.7-0.7h-2.4c-0.3,0-0.7,0.3-0.7,0.7s0.3,0.7,0.7,0.7h2.4
			C-272.7,397.4-272.4,397-272.4,396.7z"/>
	</g>
</g>
<g id="Heading" class="st0">
	<g class="st2">
		<polygon points="-284,398.6 -274.7,404.5 -274.7,400.5 -280.4,397.4 -274.7,393.6 -274.7,389.7 -284,396.2 		"/>
		<polygon points="-264.7,394.9 -268.9,394.9 -268.9,388 -272.5,388 -272.5,406.7 -268.9,406.7 -268.9,399 -264.7,399 -264.7,406.7 
			-261,406.7 -261,388 -264.7,388 		"/>
		<polygon points="-258.8,389.9 -258.8,393.8 -253.1,397.5 -258.8,400.7 -258.8,404.6 -249.5,398.8 -249.5,396.4 		"/>
	</g>
</g>
<g id="Numerical" class="st0">
	<g class="st2">
		<g>
			<path d="M-275.4,405.7h-4v-8.9c0-1,0-2.1,0.1-3c-0.3,0.4-0.6,0.7-0.9,1l-1.7,1.6l-2.1-2.9l5.1-4.7h3.6V405.7z"/>
			<path d="M-261.5,405.7h-10.7v-3l3.6-4.1c1-1.2,1.7-2.1,2.1-2.5c0.3-0.5,0.6-0.8,0.7-1.1c0.1-0.3,0.2-0.7,0.2-1
				c0-0.5-0.1-0.8-0.4-1s-0.6-0.4-1-0.4c-0.5,0-0.9,0.2-1.4,0.5s-1,0.8-1.6,1.3l-2.2-2.9c0.8-0.8,1.4-1.3,1.9-1.7
				c0.6-0.4,1.1-0.6,1.7-0.8s1.3-0.3,2.1-0.3c0.9,0,1.8,0.2,2.5,0.6s1.3,0.9,1.8,1.6c0.4,0.8,0.7,1.5,0.7,2.4c0,0.7-0.1,1.2-0.2,1.8
				c-0.2,0.6-0.4,1.1-0.7,1.7c-0.3,0.6-0.8,1.1-1.2,1.7c-0.5,0.6-1.6,1.7-3.2,3.4v0.1h5.6v3.9H-261.5z"/>
			<path d="M-249.8,392.6c0,1-0.3,2-0.8,2.7s-1.4,1.3-2.4,1.6v0.1c2.4,0.4,3.7,1.7,3.7,3.9c0,1.6-0.6,2.8-1.6,3.7
				c-1.1,0.9-2.6,1.3-4.5,1.3c-0.8,0-1.5-0.1-2.3-0.2c-0.7-0.1-1.4-0.4-2.2-0.8v-3.8c0.7,0.4,1.3,0.7,2,0.8c0.7,0.2,1.3,0.3,1.9,0.3
				c0.8,0,1.5-0.1,1.9-0.4s0.6-0.8,0.6-1.3c0-0.5-0.1-0.8-0.3-1c-0.2-0.3-0.6-0.5-1-0.6c-0.5-0.1-1-0.2-1.8-0.2h-0.9v-3.4h0.9
				c2.1,0,3-0.6,3-1.8c0-0.5-0.2-0.8-0.5-1c-0.3-0.2-0.7-0.3-1.2-0.3c-0.9,0-1.9,0.4-2.9,1l-1.7-3c0.8-0.7,1.6-1,2.4-1.3
				s1.8-0.4,2.8-0.4c1.5,0,2.7,0.4,3.6,1C-250.2,390.4-249.8,391.3-249.8,392.6z"/>
		</g>
	</g>
</g>
<g id="Text" class="st0">
	<g class="st2">
		<g>
			<path d="M-275.3,405.6l-0.7-3.1h-4.1l-0.7,3.1h-3.7l4.1-17h4.5l4.2,17H-275.3z M-276.6,398.8l-0.6-2.9c-0.1-0.7-0.3-1.4-0.5-2.4
				c-0.2-1-0.3-1.7-0.4-2.1c-0.1,0.4-0.2,1-0.3,2c-0.2,1-0.5,2.8-1,5.3h2.7V398.8z"/>
			<path d="M-270.3,388.8h4.4c1.7,0,3,0.3,3.8,1c0.9,0.8,1.2,1.8,1.2,3.1c0,1-0.2,1.8-0.6,2.4c-0.4,0.7-0.9,1.1-1.4,1.2v0.1
				c0.9,0.3,1.3,0.8,1.7,1.3c0.4,0.7,0.6,1.4,0.6,2.5c0,1.5-0.5,2.8-1.2,3.6c-0.9,0.9-2,1.3-3.4,1.3h-4.9L-270.3,388.8L-270.3,388.8
				z M-266.9,395.2h1c0.5,0,0.9-0.1,1-0.4c0.3-0.3,0.4-0.7,0.4-1.1c0-1-0.6-1.4-1.6-1.4h-0.9L-266.9,395.2L-266.9,395.2z
				 M-266.9,398.6v3.5h1.1c1,0,1.5-0.7,1.5-1.8c0-0.6-0.2-1-0.5-1.2c-0.3-0.3-0.8-0.4-1.2-0.4L-266.9,398.6L-266.9,398.6z"/>
			<path d="M-253,392.3c-0.9,0-1.4,0.4-1.9,1.3c-0.5,1-0.7,2.1-0.7,3.6c0,3.2,0.9,5,2.7,5c0.6,0,1-0.1,1.6-0.3
				c0.6-0.2,1-0.4,1.5-0.8v3.9c-1,0.7-2.3,1-3.5,1c-1.9,0-3.3-0.8-4.4-2.2c-1-1.4-1.5-3.6-1.5-6.4c0-1.8,0.3-3.2,0.8-4.6
				c0.5-1.3,1.1-2.3,2.1-3.1c0.9-0.8,2-1,3.2-1c1.3,0,2.7,0.4,3.9,1.1l-1,3.5c-0.5-0.3-0.9-0.6-1.3-0.8
				C-251.9,392.4-252.4,392.3-253,392.3z"/>
		</g>
	</g>
</g>
</svg>
